{"glyphs":{"0":{"ha":749,"x_min":49,"x_max":700,"o":"m 374 -22 q 234 19 294 -22 q 132 132 174 60 q 69 297 90 204 q 49 486 49 390 q 132 844 49 700 q 374 993 219 993 q 617 844 529 993 q 700 494 700 703 q 617 132 700 281 q 374 -22 529 -22 m 374 -12 q 525 486 525 -12 q 374 983 525 983 q 224 486 224 983 q 374 -12 224 -11 z "},"1":{"ha":449,"x_min":33,"x_max":418,"o":"m 418 0 l 33 0 l 33 13 l 147 13 l 147 960 l 33 960 l 33 971 l 306 971 l 306 13 l 418 13 l 418 0 z "},"2":{"ha":647,"x_min":39,"x_max":594,"o":"m 588 0 l 46 0 l 46 14 l 325 390 q 381 474 356 431 q 417 573 404 521 q 431 701 431 625 q 407 862 431 800 q 346 953 383 924 q 265 982 308 982 q 157 933 204 982 q 144 906 144 919 l 146 896 q 163 875 146 886 q 197 836 186 861 q 208 779 208 811 q 184 706 208 735 q 119 676 160 676 q 71 697 92 676 q 39 782 39 729 q 57 853 39 819 q 129 938 90 908 q 203 980 168 968 q 263 993 239 992 l 286 993 q 468 958 400 993 q 565 863 536 922 q 594 731 594 803 q 578 629 593 679 q 468 449 543 522 l 158 146 l 425 146 q 549 194 515 146 q 583 325 583 243 l 583 332 l 588 332 l 588 0 z "},"3":{"ha":654,"x_min":40,"x_max":611,"o":"m 271 -12 q 221 -6 263 -12 q 133 26 179 0 q 58 111 88 51 q 40 197 40 153 q 69 267 44 240 q 129 293 94 293 q 190 265 165 293 q 214 190 214 236 q 165 97 214 126 q 150 64 150 88 q 211 8 150 28 q 271 -1 243 -1 q 371 44 328 -1 q 438 321 438 118 q 419 494 438 433 q 376 582 401 556 q 326 613 351 608 q 285 618 300 618 q 174 568 228 618 l 160 550 l 153 557 l 389 826 l 103 826 l 103 971 l 546 971 l 218 615 q 285 631 250 629 q 465 591 392 631 q 574 482 538 551 q 611 326 611 413 q 519 86 611 185 q 271 -12 426 -12 z "},"4":{"ha":664,"x_min":18,"x_max":622,"o":"m 622 0 l 301 0 l 301 13 l 381 13 l 381 239 l 18 239 l 18 243 l 544 993 l 544 13 l 622 13 l 622 0 m 381 250 l 381 743 l 35 250 l 381 250 z "},"5":{"ha":653,"x_min":40,"x_max":607,"o":"m 275 -17 q 169 3 211 -17 q 101 53 126 24 q 62 111 75 82 q 44 160 49 140 l 40 181 q 101 289 40 263 q 129 294 115 294 q 192 263 165 294 q 218 188 218 232 q 165 89 217 121 q 146 57 146 76 q 161 28 146 42 q 256 -4 204 -4 q 344 28 304 -4 q 410 132 385 61 q 435 318 435 203 q 383 557 435 481 q 285 617 343 617 q 188 575 238 617 q 126 497 156 547 l 124 499 l 169 971 l 524 971 l 524 831 l 164 831 l 135 521 q 194 592 167 571 q 296 629 243 629 q 468 590 399 629 q 572 481 538 550 q 607 324 607 411 q 553 126 607 222 q 275 -17 472 -17 z "},"6":{"ha":707,"x_min":49,"x_max":656,"o":"m 350 -12 q 187 47 254 -12 q 84 217 119 107 q 49 474 49 326 q 76 691 49 594 q 155 855 104 788 q 271 958 206 922 q 429 993 336 993 q 593 925 532 993 q 639 844 625 892 q 642 817 642 831 q 617 744 642 781 q 547 708 593 708 q 490 740 511 708 q 468 815 468 771 q 497 896 468 863 q 508 928 508 910 l 507 939 q 425 981 497 981 q 327 929 374 981 q 251 772 281 878 q 219 499 222 665 l 218 467 l 225 499 q 255 570 235 536 q 308 626 275 604 q 385 649 340 649 q 546 607 486 649 q 656 338 656 529 q 624 155 656 233 q 524 32 592 76 q 350 -12 456 -12 m 350 0 q 423 29 393 0 q 469 125 453 58 q 486 308 486 192 q 450 549 486 444 q 413 610 436 589 q 361 632 389 632 q 297 598 329 632 q 242 491 264 564 q 219 300 219 418 q 236 117 219 182 q 350 0 267 0 z "},"7":{"ha":592,"x_min":31,"x_max":569,"o":"m 263 0 l 64 0 l 517 831 l 31 831 l 31 971 l 569 971 l 263 0 z "},"8":{"ha":711,"x_min":46,"x_max":663,"o":"m 344 -17 q 194 16 263 -17 q 86 105 126 49 q 46 232 46 161 q 113 389 46 328 q 264 464 169 440 q 169 528 213 490 q 86 731 86 606 q 124 865 86 807 q 228 955 161 922 q 378 988 294 988 q 503 961 447 988 q 592 889 558 935 q 625 785 625 843 q 606 698 625 742 q 547 622 586 654 q 439 574 508 589 q 663 292 663 469 q 640 185 663 239 q 578 85 618 131 q 478 12 538 40 q 344 -17 419 -17 m 432 579 q 493 785 493 628 q 468 897 493 840 q 361 975 436 975 q 284 955 319 975 q 226 897 249 935 q 203 807 203 860 q 235 717 203 757 q 320 644 268 678 q 432 579 372 610 m 347 -4 q 486 69 436 -4 q 529 204 529 129 q 515 284 529 254 q 473 335 500 314 q 415 375 446 357 q 279 454 385 393 q 193 289 214 407 q 186 215 186 242 q 209 88 186 136 q 269 17 232 39 q 347 -4 307 -4 z "},"9":{"ha":710,"x_min":50,"x_max":660,"o":"m 292 -14 l 285 -14 q 190 6 236 -14 q 123 52 153 21 q 78 131 93 83 q 75 163 75 144 q 98 232 75 196 q 169 268 121 268 q 226 236 204 268 q 249 158 249 204 q 221 82 249 114 q 210 49 210 68 l 211 39 q 239 7 218 15 q 294 -1 265 -1 q 392 52 347 0 q 463 208 436 104 q 490 469 490 313 l 490 517 l 485 486 q 404 356 467 401 q 321 331 371 331 q 165 369 224 331 q 50 646 50 447 q 175 946 50 860 q 353 993 247 993 q 619 771 543 993 q 660 490 660 653 q 638 296 660 383 q 562 131 611 199 q 448 26 513 63 q 292 -14 383 -11 m 351 349 q 415 385 383 350 q 486 656 486 463 q 465 867 486 790 q 350 981 433 981 q 276 950 307 981 q 219 704 219 893 q 261 429 219 542 q 299 369 275 390 q 351 349 322 349 z "},"\u0000":{"ha":0,"x_min":0,"x_max":0,"o":""},"\n":{"ha":0,"x_min":0,"x_max":0,"o":""}," ":{"ha":449,"x_min":0,"x_max":0,"o":""},"!":{"ha":296,"x_min":46,"x_max":249,"o":"m 149 326 l 146 326 l 64 910 l 64 917 q 88 968 64 946 q 147 990 111 990 q 208 968 185 990 q 231 918 231 946 q 149 326 231 913 m 146 0 q 75 31 108 0 q 46 104 46 64 q 92 193 47 163 q 147 211 117 211 q 219 178 189 210 q 249 106 249 147 q 186 8 246 38 q 146 0 167 0 z "},"\"":{"ha":404,"x_min":42,"x_max":375,"o":"m 51 567 l 42 567 l 42 971 l 186 971 l 51 567 m 240 567 l 231 567 l 231 971 l 375 971 l 240 567 z "},"“":{"ha":404,"x_min":42,"x_max":375,"o":"m 51 567 l 42 567 l 42 971 l 186 971 l 51 567 m 240 567 l 231 567 l 231 971 l 375 971 l 240 567 z "},"”":{"ha":404,"x_min":42,"x_max":375,"o":"m 51 567 l 42 567 l 42 971 l 186 971 l 51 567 m 240 567 l 231 567 l 231 971 l 375 971 l 240 567 z "},"#":{"ha":719,"x_min":32,"x_max":689,"o":"m 440 0 l 429 0 l 478 310 l 186 310 l 139 0 l 129 0 l 178 310 l 32 310 l 32 321 l 179 321 l 232 664 l 85 664 l 85 676 l 235 676 l 281 971 l 290 971 l 244 676 l 535 676 l 581 971 l 590 971 l 544 676 l 689 676 l 689 664 l 543 664 l 489 321 l 636 321 l 636 310 l 488 310 l 440 0 m 479 321 l 533 664 l 243 664 l 189 321 l 479 321 z "},"$":{"ha":681,"x_min":51,"x_max":635,"o":"m 349 -153 l 336 -153 l 336 -25 q 256 -16 292 -25 q 186 3 219 -7 q 103 22 132 22 q 76 18 86 22 q 61 -8 67 14 l 51 -8 l 51 294 l 58 294 q 190 26 58 96 q 336 -14 265 -14 l 336 404 l 333 404 q 75 618 106 481 q 65 696 65 663 l 65 710 q 100 846 65 788 q 196 950 135 911 q 336 990 257 989 l 336 1125 l 349 1125 l 349 990 q 457 963 417 983 q 519 944 488 944 q 548 950 538 944 q 563 974 558 956 l 568 974 l 568 714 l 558 714 l 557 740 q 546 805 556 767 q 515 882 536 843 q 453 948 493 921 q 349 979 413 975 l 349 614 q 556 502 479 574 q 635 301 632 431 q 596 140 635 213 q 488 21 557 67 q 349 -24 428 -18 l 349 -153 m 336 618 l 336 979 q 231 951 275 978 q 165 884 188 925 q 142 801 142 843 q 153 742 142 772 q 207 680 165 711 q 336 618 249 649 m 349 -14 q 497 67 450 -6 q 538 200 538 128 q 501 306 538 265 q 420 369 464 347 q 349 400 376 392 l 349 -14 z "},"%":{"ha":983,"x_min":36,"x_max":947,"o":"m 224 0 l 211 0 l 779 969 l 792 969 l 224 0 m 263 485 q 142 520 192 485 q 64 614 92 556 q 36 738 36 672 q 63 862 36 806 q 141 953 90 918 q 263 988 192 988 q 383 953 333 988 q 461 863 433 919 q 489 740 489 806 q 462 614 489 671 q 384 521 435 557 q 263 485 333 485 m 261 497 q 342 553 318 497 q 365 736 365 608 q 342 920 365 865 q 263 975 318 975 q 183 920 207 975 q 160 731 160 865 q 183 553 160 608 q 261 497 207 497 m 721 -17 q 599 19 650 -17 q 522 113 549 54 q 494 235 494 171 q 522 360 494 304 q 599 451 549 417 q 721 486 650 486 q 842 452 792 486 q 920 362 893 418 q 947 239 947 306 q 920 113 947 169 q 842 19 893 56 q 721 -17 792 -17 m 722 -4 q 800 51 776 -4 q 824 235 824 106 q 800 419 824 364 q 721 475 776 475 q 642 419 665 475 q 618 235 618 364 q 642 51 618 106 q 722 -4 665 -4 z "},"&":{"ha":836,"x_min":39,"x_max":808,"o":"m 310 -11 q 192 10 240 -11 q 114 63 143 31 q 68 135 85 96 q 45 213 51 174 q 39 278 39 251 q 114 479 39 393 q 265 610 169 543 q 236 706 243 679 q 228 774 228 739 q 249 877 228 828 q 313 957 269 926 q 428 988 356 988 q 479 972 456 988 q 517 926 503 957 q 531 853 531 896 q 488 736 531 789 q 418 672 463 706 l 617 217 q 644 278 632 242 q 672 489 672 364 q 658 607 672 565 q 617 664 644 649 q 551 679 589 679 l 551 683 l 779 683 l 779 679 q 726 658 747 672 q 696 607 706 644 q 683 493 686 569 q 624 203 679 304 l 714 13 l 808 13 l 808 0 l 613 0 q 507 67 544 0 q 456 26 483 44 q 310 -11 399 -11 m 414 683 l 425 692 q 522 850 522 761 q 515 905 522 878 q 488 953 507 932 q 440 975 469 975 q 436 974 439 975 q 423 970 433 974 q 399 954 413 967 q 374 919 385 942 q 363 860 364 896 q 414 683 363 782 m 371 11 q 500 76 431 11 l 501 78 l 268 601 l 244 581 q 197 537 219 560 q 163 486 175 514 q 151 418 151 458 q 194 232 151 357 q 243 126 215 176 q 303 43 271 75 q 371 11 336 11 z "},"'":{"ha":217,"x_min":42,"x_max":186,"o":"m 51 567 l 42 567 l 42 971 l 186 971 l 51 567 z "},"‘":{"ha":217,"x_min":42,"x_max":186,"o":"m 51 567 l 42 567 l 42 971 l 186 971 l 51 567 z "},"’":{"ha":217,"x_min":42,"x_max":186,"o":"m 51 567 l 42 567 l 42 971 l 186 971 l 51 567 z "},"(":{"ha":376,"x_min":49,"x_max":407,"o":"m 407 -244 l 394 -244 q 247 -121 308 -190 q 49 399 49 100 q 247 919 49 699 q 394 1042 308 988 l 407 1042 q 258 781 300 928 q 204 399 204 589 q 258 18 204 210 q 407 -244 300 -131 z "},")":{"ha":376,"x_min":-31,"x_max":328,"o":"m -18 -244 l -31 -244 q 118 18 75 -131 q 172 399 172 210 q 118 781 172 589 q -31 1042 75 928 l -18 1042 q 129 919 68 988 q 328 399 328 699 q 129 -121 328 100 q -18 -244 68 -190 z "},"*":{"ha":482,"x_min":33,"x_max":447,"o":"m 246 501 l 235 501 l 235 725 l 40 594 l 33 603 l 231 736 l 33 869 l 40 878 l 235 747 l 235 971 l 246 971 l 246 747 l 440 878 l 447 869 l 250 736 l 447 603 l 440 594 l 246 725 l 246 501 z "},"+":{"ha":554,"x_min":22,"x_max":531,"o":"m 339 239 l 214 239 l 214 479 l 22 479 l 22 492 l 214 492 l 214 733 l 339 733 l 339 492 l 531 492 l 531 479 l 339 479 l 339 239 z "},",":{"ha":274,"x_min":29,"x_max":244,"o":"m 63 -287 l 61 -287 l 58 -283 q 163 -149 136 -219 q 181 -39 181 -99 q 178 13 181 -14 q 129 0 160 0 q 58 31 92 0 q 29 104 29 64 q 38 146 29 125 q 75 194 50 176 q 131 211 100 211 q 224 144 197 206 q 244 32 244 100 q 217 -104 244 -37 q 159 -203 193 -161 q 97 -266 125 -244 q 63 -287 69 -287 z "},"-":{"ha":306,"x_min":-1,"x_max":307,"o":"m 307 481 l -1 481 l -1 492 l 307 492 l 307 481 z "},".":{"ha":263,"x_min":29,"x_max":232,"o":"m 129 0 q 58 31 92 0 q 29 104 29 64 q 75 193 31 163 q 131 211 100 211 q 202 178 172 210 q 232 106 232 147 q 169 8 229 38 q 129 0 150 0 z "},"/":{"ha":303,"x_min":-21,"x_max":283,"o":"m -10 -244 l -21 -244 l 272 1042 l 283 1042 l -10 -244 z "},":":{"ha":282,"x_min":39,"x_max":242,"o":"m 139 517 q 68 547 101 517 q 39 621 39 581 q 85 711 40 679 q 140 728 110 728 q 212 695 182 726 q 242 622 242 664 q 179 525 239 554 q 139 517 160 517 m 139 0 q 68 31 101 0 q 39 104 39 64 q 85 193 40 163 q 140 211 110 211 q 212 178 182 210 q 242 106 242 147 q 179 8 239 38 q 139 0 160 0 z "},";":{"ha":293,"x_min":39,"x_max":254,"o":"m 147 517 q 76 547 110 517 q 47 621 47 581 q 93 711 49 679 q 149 728 118 728 q 220 695 190 726 q 250 622 250 664 q 188 525 247 554 q 147 517 168 517 m 72 -287 l 71 -287 l 68 -283 q 172 -149 146 -219 q 190 -39 190 -99 q 188 13 190 -14 q 139 0 169 0 q 68 31 101 0 q 39 104 39 64 q 47 146 39 125 q 85 194 60 176 q 140 211 110 211 q 233 144 207 206 q 254 32 254 100 q 226 -104 254 -37 q 169 -203 203 -161 q 107 -266 135 -244 q 72 -287 79 -287 z "},"<":{"ha":432,"x_min":26,"x_max":404,"o":"m 404 219 l 26 471 l 26 482 l 404 733 l 404 719 l 39 476 l 404 235 l 404 219 z "},"=":{"ha":481,"x_min":6,"x_max":474,"o":"m 474 347 l 6 347 l 6 358 l 474 358 l 474 347 m 474 613 l 6 613 l 6 625 l 474 625 l 474 613 z "},">":{"ha":432,"x_min":28,"x_max":406,"o":"m 28 219 l 28 235 l 393 476 l 28 719 l 28 733 l 406 482 l 406 471 l 28 219 z "},"?":{"ha":622,"x_min":35,"x_max":583,"o":"m 246 326 l 238 326 l 238 457 l 250 457 q 376 538 328 468 q 424 704 424 607 q 397 878 424 821 q 263 976 351 976 q 163 939 213 976 q 144 906 144 925 l 144 896 q 164 871 144 886 q 208 779 208 839 q 183 705 208 736 q 121 674 157 674 q 54 714 79 674 q 35 782 35 744 q 56 856 35 822 q 131 935 78 890 q 264 988 185 979 l 297 988 q 463 953 393 988 q 583 732 583 890 q 568 639 583 688 q 246 446 514 456 l 246 326 m 240 0 q 169 31 203 0 q 140 104 140 64 q 186 193 142 163 q 242 211 211 211 q 313 178 283 210 q 343 106 343 147 q 281 8 340 38 q 240 0 261 0 z "},"@":{"ha":1175,"x_min":43,"x_max":1131,"o":"m 524 -219 q 344 -186 458 -219 q 147 -60 222 -146 q 43 242 43 57 q 210 672 43 493 q 391 803 282 751 q 646 860 500 856 q 661 861 649 861 q 706 860 674 861 q 797 842 738 858 q 1049 675 953 794 q 1131 440 1131 565 q 1126 383 1131 413 q 1068 206 1108 272 q 992 111 1028 140 l 976 97 q 863 39 931 58 q 800 28 828 28 q 700 76 728 28 q 686 132 686 100 l 688 156 q 561 40 640 65 q 522 35 543 35 q 432 61 476 35 q 374 118 397 81 q 347 224 347 163 q 363 324 347 269 q 493 515 400 447 q 685 576 579 576 q 760 542 735 576 q 781 479 778 518 q 782 472 782 478 l 811 568 l 936 568 l 815 164 q 804 93 804 119 q 840 46 804 46 q 861 49 850 46 q 986 118 932 69 q 1085 338 1074 201 l 1086 389 q 1058 571 1086 483 q 794 833 992 774 q 660 851 731 851 q 511 832 568 851 q 299 667 382 788 q 174 321 203 526 q 165 203 165 258 q 260 -96 165 15 q 542 -210 356 -207 q 800 -158 674 -210 q 950 -69 906 -117 l 956 -75 q 803 -168 910 -124 q 690 -203 758 -186 q 524 -219 621 -219 m 521 43 q 608 74 565 43 q 711 239 676 122 l 765 417 q 772 467 772 443 q 754 536 772 511 q 685 568 729 568 q 568 485 628 568 q 478 288 514 406 q 453 146 453 204 q 471 67 453 97 q 499 44 481 47 l 521 43 z "},"A":{"ha":781,"x_min":-29,"x_max":811,"o":"m 811 0 l 464 0 l 464 13 l 550 13 l 465 242 l 139 242 l 65 13 l 158 13 l 158 0 l -29 0 l -29 13 l 56 13 l 357 994 l 722 13 l 811 13 l 811 0 m 461 253 l 290 717 l 142 253 l 461 253 z "},"À":{"ha":781,"x_min":-29,"x_max":811,"o":"m 811 0 l 464 0 l 464 13 l 550 13 l 465 242 l 139 242 l 65 13 l 158 13 l 158 0 l -29 0 l -29 13 l 56 13 l 357 994 l 722 13 l 811 13 l 811 0 m 461 253 l 290 717 l 142 253 l 461 253 z "},"Á":{"ha":781,"x_min":-29,"x_max":811,"o":"m 811 0 l 464 0 l 464 13 l 550 13 l 465 242 l 139 242 l 65 13 l 158 13 l 158 0 l -29 0 l -29 13 l 56 13 l 357 994 l 722 13 l 811 13 l 811 0 m 461 253 l 290 717 l 142 253 l 461 253 z "},"Â":{"ha":781,"x_min":-29,"x_max":811,"o":"m 811 0 l 464 0 l 464 13 l 550 13 l 465 242 l 139 242 l 65 13 l 158 13 l 158 0 l -29 0 l -29 13 l 56 13 l 357 994 l 722 13 l 811 13 l 811 0 m 461 253 l 290 717 l 142 253 l 461 253 z "},"Ã":{"ha":781,"x_min":-29,"x_max":811,"o":"m 811 0 l 464 0 l 464 13 l 550 13 l 465 242 l 139 242 l 65 13 l 158 13 l 158 0 l -29 0 l -29 13 l 56 13 l 357 994 l 722 13 l 811 13 l 811 0 m 461 253 l 290 717 l 142 253 l 461 253 z "},"Ä":{"ha":781,"x_min":-29,"x_max":811,"o":"m 811 0 l 464 0 l 464 13 l 550 13 l 465 242 l 139 242 l 65 13 l 158 13 l 158 0 l -29 0 l -29 13 l 56 13 l 357 994 l 722 13 l 811 13 l 811 0 m 461 253 l 290 717 l 142 253 l 461 253 z "},"Å":{"ha":781,"x_min":-29,"x_max":811,"o":"m 811 0 l 464 0 l 464 13 l 550 13 l 465 242 l 139 242 l 65 13 l 158 13 l 158 0 l -29 0 l -29 13 l 56 13 l 357 994 l 722 13 l 811 13 l 811 0 m 461 253 l 290 717 l 142 253 l 461 253 z "},"B":{"ha":731,"x_min":4,"x_max":713,"o":"m 393 0 l 4 0 l 10 13 l 93 13 l 93 960 l 10 960 l 10 971 l 378 971 q 644 749 643 971 q 581 585 644 640 q 471 535 544 553 l 485 532 q 659 441 606 510 q 713 281 713 372 l 713 263 q 681 131 713 190 q 582 36 650 72 q 393 0 514 0 m 376 539 q 455 567 428 539 q 490 644 482 596 q 499 749 499 692 q 481 853 499 806 q 427 931 463 901 q 340 960 392 960 l 257 960 l 257 539 l 376 539 m 356 13 q 463 47 419 13 q 526 140 506 81 q 547 269 547 199 q 385 526 547 525 l 257 526 l 257 13 l 356 13 z "},"C":{"ha":760,"x_min":18,"x_max":718,"o":"m 424 -22 q 297 11 367 -22 q 165 109 228 44 q 60 268 101 174 q 18 486 18 363 q 60 703 18 608 q 165 863 101 799 q 297 960 228 926 q 424 993 367 993 q 501 981 472 993 q 551 956 531 969 q 594 933 572 943 q 651 924 617 924 q 676 930 667 924 q 693 946 686 936 q 703 965 700 956 q 708 979 707 974 l 710 986 l 718 986 l 718 646 l 710 646 q 690 741 710 685 q 632 852 669 797 q 542 944 594 907 q 424 981 489 981 q 290 911 340 981 q 218 728 240 842 q 196 486 196 615 q 218 242 196 356 q 290 60 240 129 q 424 -10 340 -10 q 632 119 543 -10 q 690 231 669 174 q 710 326 710 288 l 718 326 l 718 -15 l 710 -15 q 694 17 710 -7 q 644 47 675 47 q 595 38 617 47 q 551 16 574 29 q 498 -10 528 3 q 424 -22 468 -22 z "},"Ç":{"ha":760,"x_min":18,"x_max":718,"o":"m 424 -22 q 297 11 367 -22 q 165 109 228 44 q 60 268 101 174 q 18 486 18 363 q 60 703 18 608 q 165 863 101 799 q 297 960 228 926 q 424 993 367 993 q 501 981 472 993 q 551 956 531 969 q 594 933 572 943 q 651 924 617 924 q 676 930 667 924 q 693 946 686 936 q 703 965 700 956 q 708 979 707 974 l 710 986 l 718 986 l 718 646 l 710 646 q 690 741 710 685 q 632 852 669 797 q 542 944 594 907 q 424 981 489 981 q 290 911 340 981 q 218 728 240 842 q 196 486 196 615 q 218 242 196 356 q 290 60 240 129 q 424 -10 340 -10 q 632 119 543 -10 q 690 231 669 174 q 710 326 710 288 l 718 326 l 718 -15 l 710 -15 q 694 17 710 -7 q 644 47 675 47 q 595 38 617 47 q 551 16 574 29 q 498 -10 528 3 q 424 -22 468 -22 z "},"D":{"ha":826,"x_min":7,"x_max":800,"o":"m 346 0 l 7 0 l 7 13 l 90 13 l 90 960 l 7 960 l 7 971 l 346 971 q 782 675 715 971 q 800 486 800 586 q 782 296 800 385 q 346 0 715 0 m 357 13 q 635 486 635 13 q 357 960 635 960 l 254 960 l 254 13 l 357 13 z "},"E":{"ha":749,"x_min":6,"x_max":708,"o":"m 708 0 l 6 0 l 6 13 l 89 13 l 89 960 l 6 960 l 6 971 l 690 971 l 690 621 l 681 621 q 606 866 681 772 q 392 960 532 960 l 253 960 l 253 506 l 317 506 q 411 538 378 510 q 471 661 467 583 l 472 693 l 481 693 l 481 299 l 472 299 l 469 318 q 432 425 461 375 q 314 494 392 492 l 253 494 l 253 13 l 418 13 q 578 62 515 13 q 669 190 640 111 q 699 357 699 268 l 699 365 l 708 365 l 708 0 z "},"È":{"ha":749,"x_min":6,"x_max":708,"o":"m 708 0 l 6 0 l 6 13 l 89 13 l 89 960 l 6 960 l 6 971 l 690 971 l 690 621 l 681 621 q 606 866 681 772 q 392 960 532 960 l 253 960 l 253 506 l 317 506 q 411 538 378 510 q 471 661 467 583 l 472 693 l 481 693 l 481 299 l 472 299 l 469 318 q 432 425 461 375 q 314 494 392 492 l 253 494 l 253 13 l 418 13 q 578 62 515 13 q 669 190 640 111 q 699 357 699 268 l 699 365 l 708 365 l 708 0 z "},"É":{"ha":749,"x_min":6,"x_max":708,"o":"m 708 0 l 6 0 l 6 13 l 89 13 l 89 960 l 6 960 l 6 971 l 690 971 l 690 621 l 681 621 q 606 866 681 772 q 392 960 532 960 l 253 960 l 253 506 l 317 506 q 411 538 378 510 q 471 661 467 583 l 472 693 l 481 693 l 481 299 l 472 299 l 469 318 q 432 425 461 375 q 314 494 392 492 l 253 494 l 253 13 l 418 13 q 578 62 515 13 q 669 190 640 111 q 699 357 699 268 l 699 365 l 708 365 l 708 0 z "},"Ê":{"ha":749,"x_min":6,"x_max":708,"o":"m 708 0 l 6 0 l 6 13 l 89 13 l 89 960 l 6 960 l 6 971 l 690 971 l 690 621 l 681 621 q 606 866 681 772 q 392 960 532 960 l 253 960 l 253 506 l 317 506 q 411 538 378 510 q 471 661 467 583 l 472 693 l 481 693 l 481 299 l 472 299 l 469 318 q 432 425 461 375 q 314 494 392 492 l 253 494 l 253 13 l 418 13 q 578 62 515 13 q 669 190 640 111 q 699 357 699 268 l 699 365 l 708 365 l 708 0 z "},"Ë":{"ha":749,"x_min":6,"x_max":708,"o":"m 708 0 l 6 0 l 6 13 l 89 13 l 89 960 l 6 960 l 6 971 l 690 971 l 690 621 l 681 621 q 606 866 681 772 q 392 960 532 960 l 253 960 l 253 506 l 317 506 q 411 538 378 510 q 471 661 467 583 l 472 693 l 481 693 l 481 299 l 472 299 l 469 318 q 432 425 461 375 q 314 494 392 492 l 253 494 l 253 13 l 418 13 q 578 62 515 13 q 669 190 640 111 q 699 357 699 268 l 699 365 l 708 365 l 708 0 z "},"F":{"ha":694,"x_min":7,"x_max":692,"o":"m 342 0 l 7 0 l 7 13 l 90 13 l 90 960 l 7 960 l 7 971 l 692 971 l 692 621 l 682 621 q 608 866 682 772 q 393 960 533 960 l 254 960 l 254 506 l 318 506 q 413 537 379 510 q 458 599 446 564 q 472 660 471 633 q 474 692 474 688 l 474 693 l 482 693 l 482 299 l 474 299 l 471 318 q 459 367 468 338 q 433 425 450 396 q 387 474 415 454 q 315 494 358 493 l 254 494 l 254 13 l 342 13 l 342 0 z "},"G":{"ha":832,"x_min":19,"x_max":838,"o":"m 411 -22 q 230 24 301 -22 q 115 138 158 69 q 52 278 72 206 q 26 408 32 350 q 19 486 19 465 q 59 704 19 610 q 159 863 99 799 q 288 960 219 926 q 411 993 356 993 q 477 986 453 993 q 519 970 501 979 q 559 954 538 961 q 617 947 581 947 q 648 953 635 947 q 670 967 661 960 q 683 981 679 975 l 688 986 l 696 986 l 696 646 l 688 646 q 669 741 688 685 q 615 852 650 797 q 528 944 579 907 q 411 981 476 981 q 281 911 328 981 q 216 728 235 842 q 197 486 197 615 q 411 -12 197 -12 q 491 0 458 -12 q 544 30 524 13 q 576 65 565 47 q 593 96 588 83 l 597 108 l 597 392 l 511 392 l 511 403 l 838 403 l 838 392 l 761 392 l 761 0 l 751 0 q 710 40 739 28 q 663 51 682 51 q 619 44 639 51 q 581 24 600 36 q 515 -8 553 7 q 411 -22 476 -22 z "},"H":{"ha":851,"x_min":7,"x_max":844,"o":"m 844 0 l 515 0 l 515 13 l 599 13 l 599 481 l 254 481 l 254 13 l 336 13 l 336 0 l 7 0 l 7 13 l 90 13 l 90 960 l 7 960 l 7 971 l 336 971 l 336 960 l 254 960 l 254 492 l 599 492 l 599 960 l 515 960 l 515 971 l 844 971 l 844 960 l 763 960 l 763 13 l 844 13 l 844 0 z "},"I":{"ha":346,"x_min":6,"x_max":340,"o":"m 340 0 l 6 0 l 6 13 l 92 13 l 92 960 l 6 960 l 6 971 l 340 971 l 340 960 l 256 960 l 256 13 l 340 13 l 340 0 z "},"Ì":{"ha":346,"x_min":6,"x_max":340,"o":"m 340 0 l 6 0 l 6 13 l 92 13 l 92 960 l 6 960 l 6 971 l 340 971 l 340 960 l 256 960 l 256 13 l 340 13 l 340 0 z "},"Í":{"ha":346,"x_min":6,"x_max":340,"o":"m 340 0 l 6 0 l 6 13 l 92 13 l 92 960 l 6 960 l 6 971 l 340 971 l 340 960 l 256 960 l 256 13 l 340 13 l 340 0 z "},"Î":{"ha":346,"x_min":6,"x_max":340,"o":"m 340 0 l 6 0 l 6 13 l 92 13 l 92 960 l 6 960 l 6 971 l 340 971 l 340 960 l 256 960 l 256 13 l 340 13 l 340 0 z "},"Ï":{"ha":346,"x_min":6,"x_max":340,"o":"m 340 0 l 6 0 l 6 13 l 92 13 l 92 960 l 6 960 l 6 971 l 340 971 l 340 960 l 256 960 l 256 13 l 340 13 l 340 0 z "},"J":{"ha":538,"x_min":-22,"x_max":535,"o":"m 178 -115 q 19 -51 85 -115 l 18 -50 q -22 39 -22 -7 q -19 65 -22 51 q 16 126 -10 106 q 69 146 42 146 l 81 146 q 157 43 153 131 q 129 -35 157 -1 q 117 -64 117 -49 q 136 -97 117 -86 q 175 -107 156 -107 q 211 -99 183 -107 q 264 -66 239 -90 q 289 11 289 -42 l 289 960 l 174 960 l 174 971 l 535 971 l 535 960 l 453 960 l 453 224 q 375 -15 453 78 q 178 -115 292 -115 z "},"K":{"ha":782,"x_min":7,"x_max":806,"o":"m 806 0 l 472 0 l 472 13 l 547 13 l 322 581 l 254 504 l 254 13 l 324 13 l 324 0 l 7 0 l 7 13 l 90 13 l 90 960 l 7 960 l 7 971 l 324 971 l 324 960 l 254 960 l 254 519 l 644 960 l 539 960 l 539 971 l 739 971 l 739 960 l 658 960 l 453 729 l 738 13 l 806 13 l 806 0 z "},"L":{"ha":690,"x_min":7,"x_max":686,"o":"m 686 0 l 7 0 l 7 13 l 90 13 l 90 960 l 7 960 l 7 971 l 347 971 l 347 960 l 254 960 l 254 13 l 396 13 q 556 62 493 13 q 647 192 618 111 q 676 365 676 272 l 686 365 l 686 0 z "},"M":{"ha":969,"x_min":4,"x_max":961,"o":"m 394 -14 l 104 964 l 104 13 l 190 13 l 190 0 l 4 0 l 4 13 l 94 13 l 94 960 l 4 960 l 4 971 l 276 971 l 483 283 l 711 971 l 961 971 l 961 960 l 879 960 l 879 13 l 961 13 l 961 0 l 629 0 l 629 13 l 715 13 l 715 954 l 394 -14 z "},"N":{"ha":778,"x_min":4,"x_max":776,"o":"m 689 -43 l 101 953 l 101 13 l 188 13 l 188 0 l 4 0 l 4 13 l 92 13 l 92 960 l 4 960 l 4 971 l 290 971 l 679 307 l 679 960 l 592 960 l 592 971 l 776 971 l 776 960 l 689 960 l 689 -43 z "},"Ñ":{"ha":778,"x_min":4,"x_max":776,"o":"m 689 -43 l 101 953 l 101 13 l 188 13 l 188 0 l 4 0 l 4 13 l 92 13 l 92 960 l 4 960 l 4 971 l 290 971 l 679 307 l 679 960 l 592 960 l 592 971 l 776 971 l 776 960 l 689 960 l 689 -43 z "},"O":{"ha":878,"x_min":21,"x_max":856,"o":"m 439 -22 q 259 19 338 -22 q 128 133 181 61 q 48 297 75 204 q 21 486 21 389 q 129 844 21 700 q 439 993 242 993 q 618 953 540 993 q 749 844 696 914 q 828 683 801 774 q 856 494 856 593 q 749 132 856 278 q 439 -22 635 -22 m 438 -12 q 569 38 515 -12 q 650 197 622 88 q 678 486 678 306 q 650 775 678 665 q 569 934 622 885 q 438 983 515 983 q 308 933 361 983 q 226 774 254 883 q 199 486 199 665 q 226 197 199 307 q 308 37 254 86 q 438 -12 363 -12 z "},"Ò":{"ha":878,"x_min":21,"x_max":856,"o":"m 439 -22 q 259 19 338 -22 q 128 133 181 61 q 48 297 75 204 q 21 486 21 389 q 129 844 21 700 q 439 993 242 993 q 618 953 540 993 q 749 844 696 914 q 828 683 801 774 q 856 494 856 593 q 749 132 856 278 q 439 -22 635 -22 m 438 -12 q 569 38 515 -12 q 650 197 622 88 q 678 486 678 306 q 650 775 678 665 q 569 934 622 885 q 438 983 515 983 q 308 933 361 983 q 226 774 254 883 q 199 486 199 665 q 226 197 199 307 q 308 37 254 86 q 438 -12 363 -12 z "},"Ó":{"ha":878,"x_min":21,"x_max":856,"o":"m 439 -22 q 259 19 338 -22 q 128 133 181 61 q 48 297 75 204 q 21 486 21 389 q 129 844 21 700 q 439 993 242 993 q 618 953 540 993 q 749 844 696 914 q 828 683 801 774 q 856 494 856 593 q 749 132 856 278 q 439 -22 635 -22 m 438 -12 q 569 38 515 -12 q 650 197 622 88 q 678 486 678 306 q 650 775 678 665 q 569 934 622 885 q 438 983 515 983 q 308 933 361 983 q 226 774 254 883 q 199 486 199 665 q 226 197 199 307 q 308 37 254 86 q 438 -12 363 -12 z "},"Ô":{"ha":878,"x_min":21,"x_max":856,"o":"m 439 -22 q 259 19 338 -22 q 128 133 181 61 q 48 297 75 204 q 21 486 21 389 q 129 844 21 700 q 439 993 242 993 q 618 953 540 993 q 749 844 696 914 q 828 683 801 774 q 856 494 856 593 q 749 132 856 278 q 439 -22 635 -22 m 438 -12 q 569 38 515 -12 q 650 197 622 88 q 678 486 678 306 q 650 775 678 665 q 569 934 622 885 q 438 983 515 983 q 308 933 361 983 q 226 774 254 883 q 199 486 199 665 q 226 197 199 307 q 308 37 254 86 q 438 -12 363 -12 z "},"Õ":{"ha":878,"x_min":21,"x_max":856,"o":"m 439 -22 q 259 19 338 -22 q 128 133 181 61 q 48 297 75 204 q 21 486 21 389 q 129 844 21 700 q 439 993 242 993 q 618 953 540 993 q 749 844 696 914 q 828 683 801 774 q 856 494 856 593 q 749 132 856 278 q 439 -22 635 -22 m 438 -12 q 569 38 515 -12 q 650 197 622 88 q 678 486 678 306 q 650 775 678 665 q 569 934 622 885 q 438 983 515 983 q 308 933 361 983 q 226 774 254 883 q 199 486 199 665 q 226 197 199 307 q 308 37 254 86 q 438 -12 363 -12 z "},"Ö":{"ha":878,"x_min":21,"x_max":856,"o":"m 439 -22 q 259 19 338 -22 q 128 133 181 61 q 48 297 75 204 q 21 486 21 389 q 129 844 21 700 q 439 993 242 993 q 618 953 540 993 q 749 844 696 914 q 828 683 801 774 q 856 494 856 593 q 749 132 856 278 q 439 -22 635 -22 m 438 -12 q 569 38 515 -12 q 650 197 622 88 q 678 486 678 306 q 650 775 678 665 q 569 934 622 885 q 438 983 515 983 q 308 933 361 983 q 226 774 254 883 q 199 486 199 665 q 226 197 199 307 q 308 37 254 86 q 438 -12 363 -12 z "},"Ø":{"ha":878,"x_min":21,"x_max":856,"o":"m 439 -22 q 259 19 338 -22 q 128 133 181 61 q 48 297 75 204 q 21 486 21 389 q 129 844 21 700 q 439 993 242 993 q 618 953 540 993 q 749 844 696 914 q 828 683 801 774 q 856 494 856 593 q 749 132 856 278 q 439 -22 635 -22 m 438 -12 q 569 38 515 -12 q 650 197 622 88 q 678 486 678 306 q 650 775 678 665 q 569 934 622 885 q 438 983 515 983 q 308 933 361 983 q 226 774 254 883 q 199 486 199 665 q 226 197 199 307 q 308 37 254 86 q 438 -12 363 -12 z "},"P":{"ha":719,"x_min":7,"x_max":718,"o":"m 331 0 l 7 0 l 7 13 l 90 13 l 90 960 l 7 960 l 7 971 l 413 971 q 582 939 521 971 q 710 775 692 883 q 718 693 718 732 q 668 532 718 601 q 413 429 594 429 l 254 429 l 254 13 l 331 13 l 331 0 m 386 442 q 539 607 517 449 q 544 686 544 657 l 544 700 q 469 917 544 851 q 360 960 419 960 l 254 960 l 254 442 l 386 442 z "},"Q":{"ha":878,"x_min":21,"x_max":856,"o":"m 601 -307 q 451 -260 524 -307 q 333 -10 351 -194 q 260 19 294 0 q 128 133 181 61 q 48 297 75 204 q 21 486 21 389 q 129 844 21 700 q 260 953 182 914 q 439 993 338 993 q 618 953 540 993 q 749 844 696 914 q 828 683 801 774 q 856 494 856 593 q 828 296 856 388 q 749 133 801 204 q 618 19 696 61 q 515 -15 569 -6 l 515 -32 q 535 -178 515 -97 q 636 -306 554 -258 l 601 -307 m 438 -12 q 569 38 515 -12 q 678 486 678 140 q 650 775 678 665 q 569 934 622 885 q 438 983 515 983 q 308 933 361 983 q 226 774 254 883 q 199 486 199 665 q 307 38 199 138 q 378 -3 339 10 q 438 -12 407 -12 z "},"R":{"ha":774,"x_min":7,"x_max":793,"o":"m 793 0 l 668 0 q 561 53 604 3 q 515 178 518 103 l 515 413 q 489 493 515 460 q 421 526 463 526 l 254 526 l 254 13 l 331 13 l 331 0 l 7 0 l 7 13 l 90 13 l 90 960 l 7 960 l 7 971 l 375 971 q 642 749 642 971 q 624 657 642 701 q 564 582 607 613 q 506 556 543 568 q 432 539 469 544 q 646 432 586 525 q 676 319 676 385 l 676 113 q 702 42 676 71 q 763 13 728 13 l 793 13 l 793 0 m 364 539 q 441 567 415 539 q 475 644 467 596 q 483 749 483 692 q 466 853 483 806 q 415 931 449 901 q 331 960 381 960 l 254 960 l 254 539 l 364 539 z "},"S":{"ha":636,"x_min":33,"x_max":617,"o":"m 306 -25 q 238 -16 274 -25 q 168 3 201 -7 q 85 22 114 22 q 58 18 68 22 q 43 -8 49 14 l 33 -8 l 33 294 l 40 294 q 172 26 40 96 q 315 -14 247 -14 q 417 9 376 -14 q 479 67 457 32 q 510 137 501 101 q 519 200 519 172 q 494 290 519 253 q 368 386 451 353 q 315 404 322 404 q 57 618 88 481 q 47 696 47 663 l 47 710 q 82 846 47 788 q 178 951 117 911 q 321 990 240 990 q 388 981 360 990 q 439 963 417 972 q 501 944 469 944 q 530 950 519 944 q 544 974 540 956 l 550 974 l 550 714 l 540 714 l 539 742 q 528 807 538 768 q 494 885 518 846 q 429 952 471 925 q 319 979 388 979 q 213 952 257 979 q 147 884 169 925 q 124 801 124 843 q 135 741 124 772 q 191 678 147 710 q 325 617 235 647 q 536 503 458 575 q 617 301 614 432 q 578 140 617 213 q 469 21 539 67 q 306 -25 399 -25 z "},"T":{"ha":667,"x_min":-6,"x_max":672,"o":"m 496 0 l 168 0 l 168 13 l 251 13 l 251 960 l 206 960 q 56 890 108 960 q 4 692 4 821 l -6 692 l -6 971 l 672 971 l 672 692 l 663 692 q 611 888 663 815 q 461 960 560 960 l 415 960 l 415 13 l 496 13 l 496 0 z "},"U":{"ha":831,"x_min":-14,"x_max":844,"o":"m 457 -17 l 442 -17 q 226 40 314 -17 q 104 318 104 121 l 104 960 l -14 960 l -14 971 l 383 971 l 383 960 l 268 960 l 268 206 q 302 88 268 132 q 388 25 336 44 q 489 6 439 6 q 624 46 558 6 q 714 219 714 100 l 714 960 l 592 960 l 592 971 l 844 971 l 844 960 l 722 960 l 722 206 q 700 112 722 164 q 620 22 678 60 q 457 -17 563 -17 z "},"Ù":{"ha":831,"x_min":-14,"x_max":844,"o":"m 457 -17 l 442 -17 q 226 40 314 -17 q 104 318 104 121 l 104 960 l -14 960 l -14 971 l 383 971 l 383 960 l 268 960 l 268 206 q 302 88 268 132 q 388 25 336 44 q 489 6 439 6 q 624 46 558 6 q 714 219 714 100 l 714 960 l 592 960 l 592 971 l 844 971 l 844 960 l 722 960 l 722 206 q 700 112 722 164 q 620 22 678 60 q 457 -17 563 -17 z "},"Ú":{"ha":831,"x_min":-14,"x_max":844,"o":"m 457 -17 l 442 -17 q 226 40 314 -17 q 104 318 104 121 l 104 960 l -14 960 l -14 971 l 383 971 l 383 960 l 268 960 l 268 206 q 302 88 268 132 q 388 25 336 44 q 489 6 439 6 q 624 46 558 6 q 714 219 714 100 l 714 960 l 592 960 l 592 971 l 844 971 l 844 960 l 722 960 l 722 206 q 700 112 722 164 q 620 22 678 60 q 457 -17 563 -17 z "},"Û":{"ha":831,"x_min":-14,"x_max":844,"o":"m 457 -17 l 442 -17 q 226 40 314 -17 q 104 318 104 121 l 104 960 l -14 960 l -14 971 l 383 971 l 383 960 l 268 960 l 268 206 q 302 88 268 132 q 388 25 336 44 q 489 6 439 6 q 624 46 558 6 q 714 219 714 100 l 714 960 l 592 960 l 592 971 l 844 971 l 844 960 l 722 960 l 722 206 q 700 112 722 164 q 620 22 678 60 q 457 -17 563 -17 z "},"Ü":{"ha":831,"x_min":-14,"x_max":844,"o":"m 457 -17 l 442 -17 q 226 40 314 -17 q 104 318 104 121 l 104 960 l -14 960 l -14 971 l 383 971 l 383 960 l 268 960 l 268 206 q 302 88 268 132 q 388 25 336 44 q 489 6 439 6 q 624 46 558 6 q 714 219 714 100 l 714 960 l 592 960 l 592 971 l 844 971 l 844 960 l 722 960 l 722 206 q 700 112 722 164 q 620 22 678 60 q 457 -17 563 -17 z "},"V":{"ha":778,"x_min":-32,"x_max":808,"o":"m 421 -22 l 57 960 l -32 960 l -32 971 l 315 971 l 315 960 l 229 960 l 493 243 l 713 960 l 621 960 l 621 971 l 808 971 l 808 960 l 725 960 l 421 -22 z "},"W":{"ha":1158,"x_min":-32,"x_max":1189,"o":"m 803 -22 l 594 538 l 421 -22 l 57 960 l -32 960 l -32 971 l 315 971 l 315 960 l 229 960 l 493 243 l 588 554 l 438 960 l 349 960 l 349 971 l 808 971 l 808 960 l 725 960 l 672 790 l 874 243 l 1094 960 l 1001 960 l 1001 971 l 1189 971 l 1189 960 l 1106 960 l 803 -22 m 667 807 l 713 960 l 610 960 l 667 807 z "},"X":{"ha":757,"x_min":-22,"x_max":783,"o":"m 783 0 l 386 0 l 386 13 l 500 13 l 314 413 l 99 13 l 204 13 l 204 0 l -14 0 l -14 13 l 88 13 l 308 424 l 57 960 l -22 960 l -22 971 l 375 971 l 375 960 l 250 960 l 407 626 l 588 960 l 476 960 l 476 971 l 694 971 l 694 960 l 599 960 l 411 615 l 694 13 l 783 13 l 783 0 z "},"Y":{"ha":675,"x_min":-32,"x_max":706,"o":"m 506 0 l 176 0 l 176 13 l 260 13 l 260 457 l 43 960 l -32 960 l -32 971 l 331 971 l 331 960 l 231 960 l 418 517 l 610 960 l 519 960 l 519 971 l 706 971 l 706 960 l 619 960 l 424 507 l 424 13 l 506 13 l 506 0 z "},"Ý":{"ha":675,"x_min":-32,"x_max":706,"o":"m 506 0 l 176 0 l 176 13 l 260 13 l 260 457 l 43 960 l -32 960 l -32 971 l 331 971 l 331 960 l 231 960 l 418 517 l 610 960 l 519 960 l 519 971 l 706 971 l 706 960 l 619 960 l 424 507 l 424 13 l 506 13 l 506 0 z "},"Ÿ":{"ha":675,"x_min":-32,"x_max":706,"o":"m 506 0 l 176 0 l 176 13 l 260 13 l 260 457 l 43 960 l -32 960 l -32 971 l 331 971 l 331 960 l 231 960 l 418 517 l 610 960 l 519 960 l 519 971 l 706 971 l 706 960 l 619 960 l 424 507 l 424 13 l 506 13 l 506 0 z "},"Z":{"ha":664,"x_min":8,"x_max":647,"o":"m 640 0 l 8 0 q 457 960 456 954 l 276 960 q 71 856 122 960 q 40 707 40 796 l 40 689 l 31 689 l 31 971 l 647 971 l 197 13 l 343 13 q 444 22 393 13 q 537 65 494 32 q 604 163 579 97 q 631 339 629 229 l 640 339 l 640 0 z "},"[":{"ha":283,"x_min":58,"x_max":315,"o":"m 315 -244 l 58 -244 l 58 1042 l 315 1042 l 315 1031 l 224 1031 l 224 -233 l 315 -233 l 315 -244 z "},"\\":{"ha":303,"x_min":18,"x_max":322,"o":"m 322 -244 l 311 -244 l 18 1042 l 29 1042 l 322 -244 z "},"]":{"ha":283,"x_min":-33,"x_max":224,"o":"m 224 -244 l -33 -244 l -33 -233 l 58 -233 l 58 1031 l -33 1031 l -33 1042 l 224 1042 l 224 -244 z "},"^":{"ha":454,"x_min":25,"x_max":428,"o":"m 428 594 l 417 594 l 226 960 l 36 594 l 25 594 l 222 971 l 231 971 l 428 594 z "},"_":{"ha":578,"x_min":58,"x_max":519,"o":"m 519 -139 l 58 -139 l 58 -128 l 519 -128 l 519 -139 z "},"`":{"ha":268,"x_min":21,"x_max":236,"o":"m 236 683 l 229 683 l 21 971 l 182 971 l 236 683 z "},"a":{"ha":613,"x_min":17,"x_max":622,"o":"m 529 -17 l 511 -17 q 429 20 475 -17 q 374 143 383 57 l 369 160 l 367 143 q 303 28 356 71 q 189 -14 250 -14 q 72 24 121 -14 q 17 161 17 68 q 40 270 17 229 q 101 335 64 311 q 207 388 139 360 q 326 441 292 421 q 368 494 361 461 l 368 599 q 358 633 368 608 q 325 681 349 658 q 260 703 301 703 q 229 699 247 703 q 197 684 211 694 q 183 656 183 674 q 192 632 183 643 q 209 601 206 617 q 213 572 213 586 q 144 483 210 492 q 76 524 99 483 q 65 567 65 544 q 76 613 65 589 q 263 710 138 706 q 388 686 342 706 q 518 457 518 631 l 518 72 q 535 26 519 44 q 575 7 551 7 q 622 22 596 7 l 622 11 q 529 -17 581 -17 m 258 32 q 331 78 303 32 q 368 204 358 125 l 368 475 l 361 463 q 333 433 354 450 l 306 418 q 192 310 226 374 q 171 193 171 269 q 179 119 171 157 q 258 32 201 32 z "},"à":{"ha":613,"x_min":17,"x_max":622,"o":"m 529 -17 l 511 -17 q 429 20 475 -17 q 374 143 383 57 l 369 160 l 367 143 q 303 28 356 71 q 189 -14 250 -14 q 72 24 121 -14 q 17 161 17 68 q 40 270 17 229 q 101 335 64 311 q 207 388 139 360 q 326 441 292 421 q 368 494 361 461 l 368 599 q 358 633 368 608 q 325 681 349 658 q 260 703 301 703 q 229 699 247 703 q 197 684 211 694 q 183 656 183 674 q 192 632 183 643 q 209 601 206 617 q 213 572 213 586 q 144 483 210 492 q 76 524 99 483 q 65 567 65 544 q 76 613 65 589 q 263 710 138 706 q 388 686 342 706 q 518 457 518 631 l 518 72 q 535 26 519 44 q 575 7 551 7 q 622 22 596 7 l 622 11 q 529 -17 581 -17 m 258 32 q 331 78 303 32 q 368 204 358 125 l 368 475 l 361 463 q 333 433 354 450 l 306 418 q 192 310 226 374 q 171 193 171 269 q 179 119 171 157 q 258 32 201 32 z "},"á":{"ha":613,"x_min":17,"x_max":622,"o":"m 529 -17 l 511 -17 q 429 20 475 -17 q 374 143 383 57 l 369 160 l 367 143 q 303 28 356 71 q 189 -14 250 -14 q 72 24 121 -14 q 17 161 17 68 q 40 270 17 229 q 101 335 64 311 q 207 388 139 360 q 326 441 292 421 q 368 494 361 461 l 368 599 q 358 633 368 608 q 325 681 349 658 q 260 703 301 703 q 229 699 247 703 q 197 684 211 694 q 183 656 183 674 q 192 632 183 643 q 209 601 206 617 q 213 572 213 586 q 144 483 210 492 q 76 524 99 483 q 65 567 65 544 q 76 613 65 589 q 263 710 138 706 q 388 686 342 706 q 518 457 518 631 l 518 72 q 535 26 519 44 q 575 7 551 7 q 622 22 596 7 l 622 11 q 529 -17 581 -17 m 258 32 q 331 78 303 32 q 368 204 358 125 l 368 475 l 361 463 q 333 433 354 450 l 306 418 q 192 310 226 374 q 171 193 171 269 q 179 119 171 157 q 258 32 201 32 z "},"â":{"ha":613,"x_min":17,"x_max":622,"o":"m 529 -17 l 511 -17 q 429 20 475 -17 q 374 143 383 57 l 369 160 l 367 143 q 303 28 356 71 q 189 -14 250 -14 q 72 24 121 -14 q 17 161 17 68 q 40 270 17 229 q 101 335 64 311 q 207 388 139 360 q 326 441 292 421 q 368 494 361 461 l 368 599 q 358 633 368 608 q 325 681 349 658 q 260 703 301 703 q 229 699 247 703 q 197 684 211 694 q 183 656 183 674 q 192 632 183 643 q 209 601 206 617 q 213 572 213 586 q 144 483 210 492 q 76 524 99 483 q 65 567 65 544 q 76 613 65 589 q 263 710 138 706 q 388 686 342 706 q 518 457 518 631 l 518 72 q 535 26 519 44 q 575 7 551 7 q 622 22 596 7 l 622 11 q 529 -17 581 -17 m 258 32 q 331 78 303 32 q 368 204 358 125 l 368 475 l 361 463 q 333 433 354 450 l 306 418 q 192 310 226 374 q 171 193 171 269 q 179 119 171 157 q 258 32 201 32 z "},"ã":{"ha":613,"x_min":17,"x_max":622,"o":"m 529 -17 l 511 -17 q 429 20 475 -17 q 374 143 383 57 l 369 160 l 367 143 q 303 28 356 71 q 189 -14 250 -14 q 72 24 121 -14 q 17 161 17 68 q 40 270 17 229 q 101 335 64 311 q 207 388 139 360 q 326 441 292 421 q 368 494 361 461 l 368 599 q 358 633 368 608 q 325 681 349 658 q 260 703 301 703 q 229 699 247 703 q 197 684 211 694 q 183 656 183 674 q 192 632 183 643 q 209 601 206 617 q 213 572 213 586 q 144 483 210 492 q 76 524 99 483 q 65 567 65 544 q 76 613 65 589 q 263 710 138 706 q 388 686 342 706 q 518 457 518 631 l 518 72 q 535 26 519 44 q 575 7 551 7 q 622 22 596 7 l 622 11 q 529 -17 581 -17 m 258 32 q 331 78 303 32 q 368 204 358 125 l 368 475 l 361 463 q 333 433 354 450 l 306 418 q 192 310 226 374 q 171 193 171 269 q 179 119 171 157 q 258 32 201 32 z "},"ä":{"ha":613,"x_min":17,"x_max":622,"o":"m 529 -17 l 511 -17 q 429 20 475 -17 q 374 143 383 57 l 369 160 l 367 143 q 303 28 356 71 q 189 -14 250 -14 q 72 24 121 -14 q 17 161 17 68 q 40 270 17 229 q 101 335 64 311 q 207 388 139 360 q 326 441 292 421 q 368 494 361 461 l 368 599 q 358 633 368 608 q 325 681 349 658 q 260 703 301 703 q 229 699 247 703 q 197 684 211 694 q 183 656 183 674 q 192 632 183 643 q 209 601 206 617 q 213 572 213 586 q 144 483 210 492 q 76 524 99 483 q 65 567 65 544 q 76 613 65 589 q 263 710 138 706 q 388 686 342 706 q 518 457 518 631 l 518 72 q 535 26 519 44 q 575 7 551 7 q 622 22 596 7 l 622 11 q 529 -17 581 -17 m 258 32 q 331 78 303 32 q 368 204 358 125 l 368 475 l 361 463 q 333 433 354 450 l 306 418 q 192 310 226 374 q 171 193 171 269 q 179 119 171 157 q 258 32 201 32 z "},"å":{"ha":613,"x_min":17,"x_max":622,"o":"m 529 -17 l 511 -17 q 429 20 475 -17 q 374 143 383 57 l 369 160 l 367 143 q 303 28 356 71 q 189 -14 250 -14 q 72 24 121 -14 q 17 161 17 68 q 40 270 17 229 q 101 335 64 311 q 207 388 139 360 q 326 441 292 421 q 368 494 361 461 l 368 599 q 358 633 368 608 q 325 681 349 658 q 260 703 301 703 q 229 699 247 703 q 197 684 211 694 q 183 656 183 674 q 192 632 183 643 q 209 601 206 617 q 213 572 213 586 q 144 483 210 492 q 76 524 99 483 q 65 567 65 544 q 76 613 65 589 q 263 710 138 706 q 388 686 342 706 q 518 457 518 631 l 518 72 q 535 26 519 44 q 575 7 551 7 q 622 22 596 7 l 622 11 q 529 -17 581 -17 m 258 32 q 331 78 303 32 q 368 204 358 125 l 368 475 l 361 463 q 333 433 354 450 l 306 418 q 192 310 226 374 q 171 193 171 269 q 179 119 171 157 q 258 32 201 32 z "},"b":{"ha":692,"x_min":8,"x_max":663,"o":"m 454 -17 q 316 35 379 -17 q 228 193 253 86 l 221 219 l 221 0 l 8 0 l 8 13 l 69 13 l 69 1004 l 8 1004 l 8 1017 l 221 1017 l 221 475 l 228 501 q 316 658 253 606 q 454 710 379 710 q 570 660 524 710 q 640 529 617 611 q 663 338 663 447 q 649 208 663 272 q 610 93 636 144 q 545 13 585 42 q 454 -17 506 -17 m 364 33 q 433 65 401 33 q 482 165 464 96 q 500 346 500 235 q 482 528 500 458 q 433 628 464 597 q 364 660 401 660 q 289 618 319 660 q 242 506 258 576 q 226 346 226 435 q 242 190 226 260 q 289 76 258 119 q 364 33 319 33 z "},"c":{"ha":561,"x_min":24,"x_max":549,"o":"m 300 -17 q 180 13 229 -17 q 94 93 131 42 q 41 210 58 144 q 24 346 24 276 q 41 483 24 417 q 95 599 58 549 q 181 680 132 650 q 303 710 231 710 q 482 625 417 707 q 533 521 533 571 q 512 456 533 490 q 449 422 490 422 q 379 476 401 426 q 374 517 374 496 q 397 586 374 554 q 418 625 418 604 q 398 668 418 642 q 340 699 378 694 l 338 699 q 238 640 272 699 q 191 498 203 582 q 179 346 179 414 q 206 136 179 222 q 340 8 244 8 q 410 25 371 8 q 483 84 449 42 q 536 199 518 126 l 549 199 q 453 38 518 93 q 300 -17 388 -17 z "},"ç":{"ha":561,"x_min":24,"x_max":549,"o":"m 300 -17 q 180 13 229 -17 q 94 93 131 42 q 41 210 58 144 q 24 346 24 276 q 41 483 24 417 q 95 599 58 549 q 181 680 132 650 q 303 710 231 710 q 482 625 417 707 q 533 521 533 571 q 512 456 533 490 q 449 422 490 422 q 379 476 401 426 q 374 517 374 496 q 397 586 374 554 q 418 625 418 604 q 398 668 418 642 q 340 699 378 694 l 338 699 q 238 640 272 699 q 191 498 203 582 q 179 346 179 414 q 206 136 179 222 q 340 8 244 8 q 410 25 371 8 q 483 84 449 42 q 536 199 518 126 l 549 199 q 453 38 518 93 q 300 -17 388 -17 z "},"d":{"ha":692,"x_min":28,"x_max":682,"o":"m 236 -17 q 146 13 185 -17 q 81 93 107 42 q 41 212 54 144 q 28 350 28 279 q 51 529 28 447 q 122 660 75 611 q 236 710 168 710 q 376 658 313 710 q 464 501 439 606 l 471 474 l 471 1004 l 410 1004 l 410 1017 l 621 1017 l 621 13 l 682 13 l 682 0 l 471 0 l 471 221 l 464 193 q 376 35 439 86 q 236 -17 313 -17 m 328 33 q 402 75 371 33 q 449 188 433 117 q 464 346 464 260 q 449 504 464 433 q 402 617 433 575 q 328 660 371 660 q 258 628 289 660 q 208 528 226 597 q 190 346 190 458 q 208 165 190 235 q 258 65 226 96 q 328 33 289 33 z "},"e":{"ha":576,"x_min":22,"x_max":556,"o":"m 296 -17 q 172 14 225 -17 q 39 210 75 69 q 22 354 22 276 q 34 446 22 389 q 76 563 46 503 q 160 667 106 624 q 299 710 214 710 q 469 646 408 710 q 556 379 556 568 l 556 368 l 178 368 q 197 150 178 229 q 335 8 235 8 q 403 25 365 8 q 475 84 442 42 q 528 199 508 126 l 539 199 q 446 38 508 93 q 296 -17 383 -17 m 410 379 l 411 429 q 399 558 411 496 q 365 660 388 619 q 304 700 342 700 q 229 653 256 700 q 192 533 203 606 q 178 383 181 461 l 178 379 l 410 379 z "},"è":{"ha":576,"x_min":22,"x_max":556,"o":"m 296 -17 q 172 14 225 -17 q 39 210 75 69 q 22 354 22 276 q 34 446 22 389 q 76 563 46 503 q 160 667 106 624 q 299 710 214 710 q 469 646 408 710 q 556 379 556 568 l 556 368 l 178 368 q 197 150 178 229 q 335 8 235 8 q 403 25 365 8 q 475 84 442 42 q 528 199 508 126 l 539 199 q 446 38 508 93 q 296 -17 383 -17 m 410 379 l 411 429 q 399 558 411 496 q 365 660 388 619 q 304 700 342 700 q 229 653 256 700 q 192 533 203 606 q 178 383 181 461 l 178 379 l 410 379 z "},"é":{"ha":576,"x_min":22,"x_max":556,"o":"m 296 -17 q 172 14 225 -17 q 39 210 75 69 q 22 354 22 276 q 34 446 22 389 q 76 563 46 503 q 160 667 106 624 q 299 710 214 710 q 469 646 408 710 q 556 379 556 568 l 556 368 l 178 368 q 197 150 178 229 q 335 8 235 8 q 403 25 365 8 q 475 84 442 42 q 528 199 508 126 l 539 199 q 446 38 508 93 q 296 -17 383 -17 m 410 379 l 411 429 q 399 558 411 496 q 365 660 388 619 q 304 700 342 700 q 229 653 256 700 q 192 533 203 606 q 178 383 181 461 l 178 379 l 410 379 z "},"ê":{"ha":576,"x_min":22,"x_max":556,"o":"m 296 -17 q 172 14 225 -17 q 39 210 75 69 q 22 354 22 276 q 34 446 22 389 q 76 563 46 503 q 160 667 106 624 q 299 710 214 710 q 469 646 408 710 q 556 379 556 568 l 556 368 l 178 368 q 197 150 178 229 q 335 8 235 8 q 403 25 365 8 q 475 84 442 42 q 528 199 508 126 l 539 199 q 446 38 508 93 q 296 -17 383 -17 m 410 379 l 411 429 q 399 558 411 496 q 365 660 388 619 q 304 700 342 700 q 229 653 256 700 q 192 533 203 606 q 178 383 181 461 l 178 379 l 410 379 z "},"ë":{"ha":576,"x_min":22,"x_max":556,"o":"m 296 -17 q 172 14 225 -17 q 39 210 75 69 q 22 354 22 276 q 34 446 22 389 q 76 563 46 503 q 160 667 106 624 q 299 710 214 710 q 469 646 408 710 q 556 379 556 568 l 556 368 l 178 368 q 197 150 178 229 q 335 8 235 8 q 403 25 365 8 q 475 84 442 42 q 528 199 508 126 l 539 199 q 446 38 508 93 q 296 -17 383 -17 m 410 379 l 411 429 q 399 558 411 496 q 365 660 388 619 q 304 700 342 700 q 229 653 256 700 q 192 533 203 606 q 178 383 181 461 l 178 379 l 410 379 z "},"f":{"ha":500,"x_min":0,"x_max":529,"o":"m 326 0 l 0 0 l 0 13 l 88 13 l 88 681 l 3 681 l 3 693 l 88 693 q 102 826 88 767 q 154 933 117 886 q 238 1007 192 981 q 343 1033 283 1033 q 500 965 440 1033 q 529 890 529 935 q 506 826 529 851 q 458 807 486 807 q 406 831 426 807 q 386 890 386 854 q 407 953 388 926 q 413 968 413 961 q 395 1003 413 982 q 347 1025 378 1025 q 311 1018 338 1025 q 261 985 285 1011 q 238 903 238 960 l 238 693 l 386 693 l 386 681 l 238 681 l 238 13 l 326 13 l 326 0 z "},"g":{"ha":664,"x_min":13,"x_max":671,"o":"m 251 -296 l 233 -296 q 63 -249 124 -296 q 15 -154 15 -203 q 90 -50 15 -71 l 126 -43 l 118 -56 q 92 -147 92 -96 q 101 -193 92 -169 q 154 -256 122 -237 q 218 -277 186 -274 q 264 -281 250 -281 q 361 -269 313 -281 q 496 -196 453 -247 q 525 -108 522 -162 q 514 -58 525 -81 q 404 3 485 3 l 200 3 q 118 11 158 4 q 54 43 83 19 q 13 143 13 76 q 60 267 13 222 q 143 314 92 296 l 140 318 q 75 478 76 383 q 101 594 75 542 q 177 678 126 646 q 304 710 228 710 q 358 703 336 710 q 404 685 381 697 l 406 688 q 568 758 483 758 l 589 757 q 654 724 628 756 q 671 675 671 701 q 668 649 671 668 q 640 607 665 629 q 593 590 615 590 q 549 606 571 590 q 517 672 517 635 q 521 701 517 688 l 521 707 q 501 726 521 726 q 414 681 456 717 l 418 678 q 503 594 474 646 q 532 482 532 543 q 506 363 532 418 q 431 272 481 307 q 304 238 381 238 q 216 258 251 238 q 151 307 181 278 l 149 308 l 140 303 q 89 232 89 275 q 103 186 89 201 q 136 166 117 171 q 168 161 156 161 l 406 161 q 567 103 508 161 q 606 44 594 75 q 617 -35 617 13 q 525 -212 617 -142 q 449 -260 490 -242 q 251 -296 372 -292 m 304 246 q 399 478 399 246 q 386 607 399 558 q 352 678 374 656 q 304 701 331 701 q 255 679 276 701 q 221 608 233 657 q 208 478 208 558 q 304 246 208 246 z "},"h":{"ha":693,"x_min":8,"x_max":686,"o":"m 686 0 l 403 0 l 403 13 l 474 13 l 474 574 q 460 635 474 613 q 390 674 436 674 q 315 641 353 674 q 253 568 278 608 q 221 494 228 528 l 221 13 l 296 13 l 296 0 l 8 0 l 8 13 l 69 13 l 69 1004 l 8 1004 l 8 1017 l 221 1017 l 221 522 l 226 539 q 324 663 256 615 q 465 710 393 710 l 482 708 q 521 701 497 708 q 568 674 544 693 q 608 617 592 654 q 624 519 624 581 l 624 13 l 686 13 l 686 0 z "},"i":{"ha":293,"x_min":11,"x_max":285,"o":"m 147 839 q 84 865 111 839 q 57 928 57 890 q 84 991 57 965 q 147 1017 111 1017 q 211 991 185 1017 q 238 928 238 965 q 211 865 238 890 q 147 839 185 839 m 285 0 l 11 0 l 11 13 l 72 13 l 72 681 l 11 681 l 11 693 l 222 693 l 222 13 l 285 13 l 285 0 z "},"ì":{"ha":293,"x_min":11,"x_max":285,"o":"m 147 839 q 84 865 111 839 q 57 928 57 890 q 84 991 57 965 q 147 1017 111 1017 q 211 991 185 1017 q 238 928 238 965 q 211 865 238 890 q 147 839 185 839 m 285 0 l 11 0 l 11 13 l 72 13 l 72 681 l 11 681 l 11 693 l 222 693 l 222 13 l 285 13 l 285 0 z "},"í":{"ha":293,"x_min":11,"x_max":285,"o":"m 147 839 q 84 865 111 839 q 57 928 57 890 q 84 991 57 965 q 147 1017 111 1017 q 211 991 185 1017 q 238 928 238 965 q 211 865 238 890 q 147 839 185 839 m 285 0 l 11 0 l 11 13 l 72 13 l 72 681 l 11 681 l 11 693 l 222 693 l 222 13 l 285 13 l 285 0 z "},"î":{"ha":293,"x_min":11,"x_max":285,"o":"m 147 839 q 84 865 111 839 q 57 928 57 890 q 84 991 57 965 q 147 1017 111 1017 q 211 991 185 1017 q 238 928 238 965 q 211 865 238 890 q 147 839 185 839 m 285 0 l 11 0 l 11 13 l 72 13 l 72 681 l 11 681 l 11 693 l 222 693 l 222 13 l 285 13 l 285 0 z "},"ï":{"ha":293,"x_min":11,"x_max":285,"o":"m 147 839 q 84 865 111 839 q 57 928 57 890 q 84 991 57 965 q 147 1017 111 1017 q 211 991 185 1017 q 238 928 238 965 q 211 865 238 890 q 147 839 185 839 m 285 0 l 11 0 l 11 13 l 72 13 l 72 681 l 11 681 l 11 693 l 222 693 l 222 13 l 285 13 l 285 0 z "},"j":{"ha":260,"x_min":-186,"x_max":224,"o":"m -12 -314 q -112 -290 -67 -312 q -179 -217 -158 -267 q -186 -176 -186 -197 q -149 -96 -186 -125 q -114 -83 -132 -83 q -92 -86 -103 -83 q -31 -174 -31 -106 q -64 -256 -31 -226 q -72 -279 -72 -264 q -25 -306 -68 -306 q 28 -285 10 -306 q 53 -240 47 -265 q 60 -197 60 -214 l 60 681 l 17 681 l 17 693 l 210 693 l 210 -8 q 207 -92 210 -50 q 83 -292 196 -232 q -12 -314 43 -314 m 133 839 q 69 865 96 839 q 43 928 43 890 q 69 991 43 965 q 133 1017 96 1017 q 197 991 171 1017 q 224 928 224 965 q 197 865 224 890 q 133 839 171 839 z "},"k":{"ha":671,"x_min":8,"x_max":686,"o":"m 686 0 l 385 0 l 385 13 l 447 13 l 296 393 l 221 307 l 221 13 l 272 13 l 272 0 l 8 0 l 8 13 l 69 13 l 69 1004 l 8 1004 l 8 1017 l 221 1017 l 221 322 l 539 681 l 450 681 l 450 693 l 638 693 l 638 681 l 553 681 l 408 519 l 610 13 l 686 13 l 686 0 z "},"l":{"ha":292,"x_min":8,"x_max":282,"o":"m 282 0 l 8 0 l 8 13 l 69 13 l 69 1004 l 8 1004 l 8 1017 l 221 1017 l 221 13 l 282 13 l 282 0 z "},"m":{"ha":1056,"x_min":11,"x_max":1049,"o":"m 1049 0 l 774 0 l 774 13 l 838 13 l 838 579 q 824 636 838 614 q 767 671 804 664 l 757 672 q 678 631 717 672 q 630 556 649 597 q 608 482 611 514 l 608 13 l 682 13 l 682 0 l 394 0 l 394 13 l 458 13 l 458 581 q 444 633 458 611 q 382 672 418 672 q 344 666 374 672 q 274 604 315 660 q 224 496 232 549 l 222 13 l 286 13 l 286 0 l 11 0 l 11 13 l 72 13 l 72 681 l 11 681 l 11 693 l 222 693 l 222 531 l 229 549 q 317 665 254 621 q 449 710 379 710 l 463 710 q 583 628 544 710 q 608 525 603 589 l 614 540 q 697 663 638 617 q 828 710 756 710 l 842 710 q 919 684 886 710 q 969 615 951 658 q 988 521 988 572 l 988 13 l 1049 13 l 1049 0 z "},"n":{"ha":694,"x_min":11,"x_max":689,"o":"m 689 0 l 406 0 l 406 13 l 476 13 l 476 571 q 463 632 476 610 q 393 672 438 672 q 317 638 354 671 q 255 565 281 606 q 224 492 229 525 l 222 13 l 294 13 l 294 0 l 11 0 l 11 13 l 72 13 l 72 681 l 11 681 l 11 693 l 222 693 l 222 522 l 229 539 q 327 663 258 615 q 468 710 396 710 l 482 710 q 558 684 525 710 q 609 615 590 658 q 628 521 628 572 l 628 13 l 689 13 l 689 0 z "},"ñ":{"ha":694,"x_min":11,"x_max":689,"o":"m 689 0 l 406 0 l 406 13 l 476 13 l 476 571 q 463 632 476 610 q 393 672 438 672 q 317 638 354 671 q 255 565 281 606 q 224 492 229 525 l 222 13 l 294 13 l 294 0 l 11 0 l 11 13 l 72 13 l 72 681 l 11 681 l 11 693 l 222 693 l 222 522 l 229 539 q 327 663 258 615 q 468 710 396 710 l 482 710 q 558 684 525 710 q 609 615 590 658 q 628 521 628 572 l 628 13 l 689 13 l 689 0 z "},"o":{"ha":638,"x_min":24,"x_max":614,"o":"m 319 -17 q 189 13 244 -17 q 97 94 133 43 q 42 211 60 144 q 24 347 24 278 q 97 603 24 503 q 319 710 175 710 q 449 681 393 710 q 541 603 504 653 q 596 488 578 553 q 614 353 614 422 q 596 213 614 281 q 541 93 578 144 q 449 13 504 42 q 319 -17 393 -17 m 319 -8 q 391 27 363 -8 q 433 141 419 63 q 447 346 447 219 q 433 551 447 474 q 391 665 419 629 q 319 701 363 701 q 248 665 276 701 q 205 551 219 629 q 190 346 190 474 q 205 141 190 219 q 248 27 219 63 q 319 -8 276 -8 z "},"ò":{"ha":638,"x_min":24,"x_max":614,"o":"m 319 -17 q 189 13 244 -17 q 97 94 133 43 q 42 211 60 144 q 24 347 24 278 q 97 603 24 503 q 319 710 175 710 q 449 681 393 710 q 541 603 504 653 q 596 488 578 553 q 614 353 614 422 q 596 213 614 281 q 541 93 578 144 q 449 13 504 42 q 319 -17 393 -17 m 319 -8 q 391 27 363 -8 q 433 141 419 63 q 447 346 447 219 q 433 551 447 474 q 391 665 419 629 q 319 701 363 701 q 248 665 276 701 q 205 551 219 629 q 190 346 190 474 q 205 141 190 219 q 248 27 219 63 q 319 -8 276 -8 z "},"ó":{"ha":638,"x_min":24,"x_max":614,"o":"m 319 -17 q 189 13 244 -17 q 97 94 133 43 q 42 211 60 144 q 24 347 24 278 q 97 603 24 503 q 319 710 175 710 q 449 681 393 710 q 541 603 504 653 q 596 488 578 553 q 614 353 614 422 q 596 213 614 281 q 541 93 578 144 q 449 13 504 42 q 319 -17 393 -17 m 319 -8 q 391 27 363 -8 q 433 141 419 63 q 447 346 447 219 q 433 551 447 474 q 391 665 419 629 q 319 701 363 701 q 248 665 276 701 q 205 551 219 629 q 190 346 190 474 q 205 141 190 219 q 248 27 219 63 q 319 -8 276 -8 z "},"ô":{"ha":638,"x_min":24,"x_max":614,"o":"m 319 -17 q 189 13 244 -17 q 97 94 133 43 q 42 211 60 144 q 24 347 24 278 q 97 603 24 503 q 319 710 175 710 q 449 681 393 710 q 541 603 504 653 q 596 488 578 553 q 614 353 614 422 q 596 213 614 281 q 541 93 578 144 q 449 13 504 42 q 319 -17 393 -17 m 319 -8 q 391 27 363 -8 q 433 141 419 63 q 447 346 447 219 q 433 551 447 474 q 391 665 419 629 q 319 701 363 701 q 248 665 276 701 q 205 551 219 629 q 190 346 190 474 q 205 141 190 219 q 248 27 219 63 q 319 -8 276 -8 z "},"õ":{"ha":638,"x_min":24,"x_max":614,"o":"m 319 -17 q 189 13 244 -17 q 97 94 133 43 q 42 211 60 144 q 24 347 24 278 q 97 603 24 503 q 319 710 175 710 q 449 681 393 710 q 541 603 504 653 q 596 488 578 553 q 614 353 614 422 q 596 213 614 281 q 541 93 578 144 q 449 13 504 42 q 319 -17 393 -17 m 319 -8 q 391 27 363 -8 q 433 141 419 63 q 447 346 447 219 q 433 551 447 474 q 391 665 419 629 q 319 701 363 701 q 248 665 276 701 q 205 551 219 629 q 190 346 190 474 q 205 141 190 219 q 248 27 219 63 q 319 -8 276 -8 z "},"ö":{"ha":638,"x_min":24,"x_max":614,"o":"m 319 -17 q 189 13 244 -17 q 97 94 133 43 q 42 211 60 144 q 24 347 24 278 q 97 603 24 503 q 319 710 175 710 q 449 681 393 710 q 541 603 504 653 q 596 488 578 553 q 614 353 614 422 q 596 213 614 281 q 541 93 578 144 q 449 13 504 42 q 319 -17 393 -17 m 319 -8 q 391 27 363 -8 q 433 141 419 63 q 447 346 447 219 q 433 551 447 474 q 391 665 419 629 q 319 701 363 701 q 248 665 276 701 q 205 551 219 629 q 190 346 190 474 q 205 141 190 219 q 248 27 219 63 q 319 -8 276 -8 z "},"ø":{"ha":638,"x_min":24,"x_max":614,"o":"m 319 -17 q 189 13 244 -17 q 97 94 133 43 q 42 211 60 144 q 24 347 24 278 q 97 603 24 503 q 319 710 175 710 q 449 681 393 710 q 541 603 504 653 q 596 488 578 553 q 614 353 614 422 q 596 213 614 281 q 541 93 578 144 q 449 13 504 42 q 319 -17 393 -17 m 319 -8 q 391 27 363 -8 q 433 141 419 63 q 447 346 447 219 q 433 551 447 474 q 391 665 419 629 q 319 701 363 701 q 248 665 276 701 q 205 551 219 629 q 190 346 190 474 q 205 141 190 219 q 248 27 219 63 q 319 -8 276 -8 z "},"p":{"ha":690,"x_min":7,"x_max":661,"o":"m 281 -279 l 7 -279 l 7 -267 l 68 -267 l 68 681 l 7 681 l 7 693 l 219 693 l 219 472 l 226 500 q 315 658 251 607 q 453 710 378 710 q 544 681 504 710 q 609 601 583 651 q 648 485 635 550 q 661 356 661 421 q 638 164 661 246 q 569 33 615 82 q 453 -17 522 -17 q 315 35 378 -17 q 226 192 251 86 l 219 219 l 219 -267 l 281 -267 l 281 -279 m 363 33 q 431 65 400 33 q 481 165 463 96 q 499 346 499 235 q 481 527 499 458 q 431 628 463 596 q 363 660 400 660 q 288 618 318 660 q 241 506 257 576 q 225 346 225 435 q 241 190 225 260 q 288 76 257 119 q 363 33 318 33 z "},"q":{"ha":692,"x_min":28,"x_max":682,"o":"m 682 -279 l 408 -279 l 408 -267 l 471 -267 l 471 219 l 464 192 q 376 35 439 86 q 236 -17 313 -17 q 122 33 168 -17 q 51 164 75 82 q 28 343 28 246 q 41 481 28 414 q 81 600 54 549 q 146 681 107 651 q 236 710 185 710 q 376 658 313 710 q 464 500 439 607 l 471 472 l 471 693 l 682 693 l 682 681 l 621 681 l 621 -267 l 682 -267 l 682 -279 m 328 33 q 402 75 371 33 q 449 188 433 117 q 464 346 464 260 q 449 504 464 433 q 402 617 433 575 q 328 660 371 660 q 258 628 289 660 q 208 527 226 596 q 190 346 190 458 q 208 165 190 235 q 258 65 226 96 q 328 33 289 33 z "},"r":{"ha":536,"x_min":11,"x_max":539,"o":"m 285 0 l 11 0 l 11 13 l 72 13 l 72 681 l 11 681 l 11 693 l 222 693 l 222 524 l 229 543 q 304 664 254 618 q 400 710 354 710 l 415 710 q 472 690 447 710 q 533 592 518 656 q 539 557 539 575 q 521 493 538 522 q 456 456 494 456 q 394 490 414 458 q 379 544 379 515 q 432 633 382 611 q 449 657 447 639 q 435 688 449 675 q 400 700 421 700 q 288 632 342 700 q 222 485 233 564 l 222 13 l 285 13 l 285 0 z "},"s":{"ha":519,"x_min":33,"x_max":497,"o":"m 265 -17 q 139 15 218 -17 q 74 33 89 33 q 40 0 49 33 l 33 0 l 33 232 l 38 232 q 78 117 50 171 q 151 30 106 64 q 261 -7 196 -4 q 336 10 307 -7 q 386 122 386 36 q 379 165 386 143 q 349 210 372 188 q 275 253 325 232 l 164 301 q 110 335 138 311 q 62 397 82 360 q 42 483 42 433 q 103 647 42 585 q 264 710 165 710 q 381 681 318 710 q 419 669 408 669 q 446 693 442 669 l 451 693 l 451 501 l 449 501 q 353 676 425 625 q 254 701 313 701 q 197 689 225 701 q 133 583 133 660 q 139 546 133 568 q 232 457 149 492 l 349 410 q 497 211 497 354 q 465 91 497 142 q 379 12 432 40 q 265 -17 326 -17 z "},"t":{"ha":365,"x_min":-7,"x_max":386,"o":"m 238 0 l 88 0 l 88 681 l -7 681 l -7 693 l 88 693 l 88 853 l 238 974 l 238 693 l 386 693 l 386 681 l 238 681 l 238 0 z "},"u":{"ha":693,"x_min":6,"x_max":683,"o":"m 226 -17 l 213 -17 q 136 8 169 -17 q 85 76 103 33 q 67 172 67 119 l 67 681 l 6 681 l 6 693 l 218 693 l 218 131 q 236 58 218 94 q 304 21 254 21 q 408 82 358 21 q 471 206 458 143 l 471 681 l 411 681 l 411 693 l 622 693 l 622 13 l 683 13 l 683 0 l 471 0 l 471 169 l 465 153 q 368 31 436 78 q 226 -17 300 -17 z "},"ù":{"ha":693,"x_min":6,"x_max":683,"o":"m 226 -17 l 213 -17 q 136 8 169 -17 q 85 76 103 33 q 67 172 67 119 l 67 681 l 6 681 l 6 693 l 218 693 l 218 131 q 236 58 218 94 q 304 21 254 21 q 408 82 358 21 q 471 206 458 143 l 471 681 l 411 681 l 411 693 l 622 693 l 622 13 l 683 13 l 683 0 l 471 0 l 471 169 l 465 153 q 368 31 436 78 q 226 -17 300 -17 z "},"ú":{"ha":693,"x_min":6,"x_max":683,"o":"m 226 -17 l 213 -17 q 136 8 169 -17 q 85 76 103 33 q 67 172 67 119 l 67 681 l 6 681 l 6 693 l 218 693 l 218 131 q 236 58 218 94 q 304 21 254 21 q 408 82 358 21 q 471 206 458 143 l 471 681 l 411 681 l 411 693 l 622 693 l 622 13 l 683 13 l 683 0 l 471 0 l 471 169 l 465 153 q 368 31 436 78 q 226 -17 300 -17 z "},"û":{"ha":693,"x_min":6,"x_max":683,"o":"m 226 -17 l 213 -17 q 136 8 169 -17 q 85 76 103 33 q 67 172 67 119 l 67 681 l 6 681 l 6 693 l 218 693 l 218 131 q 236 58 218 94 q 304 21 254 21 q 408 82 358 21 q 471 206 458 143 l 471 681 l 411 681 l 411 693 l 622 693 l 622 13 l 683 13 l 683 0 l 471 0 l 471 169 l 465 153 q 368 31 436 78 q 226 -17 300 -17 z "},"ü":{"ha":693,"x_min":6,"x_max":683,"o":"m 226 -17 l 213 -17 q 136 8 169 -17 q 85 76 103 33 q 67 172 67 119 l 67 681 l 6 681 l 6 693 l 218 693 l 218 131 q 236 58 218 94 q 304 21 254 21 q 408 82 358 21 q 471 206 458 143 l 471 681 l 411 681 l 411 693 l 622 693 l 622 13 l 683 13 l 683 0 l 471 0 l 471 169 l 465 153 q 368 31 436 78 q 226 -17 300 -17 z "},"v":{"ha":571,"x_min":-21,"x_max":589,"o":"m 300 -18 l 54 681 l -21 681 l -21 693 l 286 693 l 286 681 l 215 681 l 371 236 l 513 681 l 438 681 l 438 693 l 589 693 l 589 681 l 522 681 l 300 -18 z "},"w":{"ha":901,"x_min":-21,"x_max":919,"o":"m 629 -18 l 457 476 l 300 -18 l 54 681 l -21 681 l -21 693 l 286 693 l 286 681 l 215 681 l 371 236 l 451 490 l 385 681 l 310 681 l 310 693 l 617 693 l 617 681 l 544 681 l 700 236 l 842 681 l 768 681 l 768 693 l 919 693 l 919 681 l 851 681 l 629 -18 z "},"x":{"ha":624,"x_min":-15,"x_max":639,"o":"m 639 0 l 297 0 l 297 13 l 389 13 l 267 260 l 131 13 l 225 13 l 225 0 l 31 0 l 31 13 l 119 13 l 261 271 l 57 681 l -15 681 l -15 693 l 332 693 l 332 681 l 238 681 l 354 444 l 483 681 l 394 681 l 394 693 l 590 693 l 590 681 l 494 681 l 360 433 l 568 13 l 639 13 l 639 0 z "},"y":{"ha":571,"x_min":-21,"x_max":589,"o":"m 113 -254 l 96 -254 q 8 -221 38 -254 q -11 -164 -10 -194 q 33 -85 -8 -108 q 64 -76 50 -76 q 111 -97 89 -76 q 136 -161 136 -125 q 133 -187 136 -175 l 133 -194 q 140 -215 133 -206 q 157 -224 147 -224 l 164 -224 l 165 -222 q 256 -122 229 -200 l 294 -1 l 56 679 l 54 681 l -21 681 l -21 693 l 286 693 l 286 681 l 215 681 l 371 236 l 513 681 l 438 681 l 438 693 l 589 693 l 589 681 l 522 681 l 263 -135 q 113 -254 219 -249 z "},"ý":{"ha":571,"x_min":-21,"x_max":589,"o":"m 113 -254 l 96 -254 q 8 -221 38 -254 q -11 -164 -10 -194 q 33 -85 -8 -108 q 64 -76 50 -76 q 111 -97 89 -76 q 136 -161 136 -125 q 133 -187 136 -175 l 133 -194 q 140 -215 133 -206 q 157 -224 147 -224 l 164 -224 l 165 -222 q 256 -122 229 -200 l 294 -1 l 56 679 l 54 681 l -21 681 l -21 693 l 286 693 l 286 681 l 215 681 l 371 236 l 513 681 l 438 681 l 438 693 l 589 693 l 589 681 l 522 681 l 263 -135 q 113 -254 219 -249 z "},"ÿ":{"ha":571,"x_min":-21,"x_max":589,"o":"m 113 -254 l 96 -254 q 8 -221 38 -254 q -11 -164 -10 -194 q 33 -85 -8 -108 q 64 -76 50 -76 q 111 -97 89 -76 q 136 -161 136 -125 q 133 -187 136 -175 l 133 -194 q 140 -215 133 -206 q 157 -224 147 -224 l 164 -224 l 165 -222 q 256 -122 229 -200 l 294 -1 l 56 679 l 54 681 l -21 681 l -21 693 l 286 693 l 286 681 l 215 681 l 371 236 l 513 681 l 438 681 l 438 693 l 589 693 l 589 681 l 522 681 l 263 -135 q 113 -254 219 -249 z "},"z":{"ha":565,"x_min":11,"x_max":543,"o":"m 539 0 l 11 0 q 378 681 376 676 l 278 681 q 185 666 238 681 q 94 595 133 651 q 53 418 56 539 l 44 418 l 44 693 l 543 693 q 181 13 182 17 l 278 13 q 499 128 443 13 q 529 276 529 193 l 529 294 l 539 294 l 539 0 z "},"{":{"ha":358,"x_min":36,"x_max":389,"o":"m 389 -244 q 207 -169 282 -244 q 132 13 132 -94 l 132 313 q 108 369 132 346 q 51 393 85 393 l 36 393 l 36 404 l 51 404 q 108 428 85 404 q 132 485 132 451 l 132 785 q 207 967 132 892 q 389 1042 282 1042 l 389 1031 q 324 1003 351 1031 q 297 939 297 976 l 297 531 q 258 438 297 476 q 165 399 219 399 q 258 360 219 399 q 297 267 297 321 l 297 -142 q 324 -206 297 -179 q 389 -233 351 -233 l 389 -244 z "},"}":{"ha":358,"x_min":-31,"x_max":322,"o":"m -31 -244 l -31 -233 q 34 -206 7 -233 q 61 -142 61 -179 l 61 267 q 100 360 61 321 q 193 399 139 399 q 100 438 139 399 q 61 531 61 476 l 61 939 q 34 1003 61 976 q -31 1031 7 1031 l -31 1042 q 151 967 72 1042 q 226 785 226 888 l 226 485 q 250 428 226 451 q 307 404 274 404 l 322 404 l 322 393 l 307 393 q 250 369 274 393 q 226 313 226 346 l 226 13 q 151 -169 226 -94 q -31 -244 76 -244 z "}," ":{"ha":449,"x_min":0,"x_max":0,"o":""},"­":{"ha":306,"x_min":-1,"x_max":307,"o":"m 307 481 l -1 481 l -1 492 l 307 492 l 307 481 z "},"°":{"ha":544,"x_min":39,"x_max":504,"o":"m 271 485 q 147 520 199 485 q 67 614 94 556 q 39 738 39 672 q 67 862 39 806 q 147 953 94 918 q 271 988 199 988 q 397 953 344 988 q 476 863 449 919 q 504 740 504 807 q 476 614 504 671 q 397 521 449 557 q 271 485 344 485 m 275 493 q 356 550 332 493 q 381 736 381 607 q 356 923 381 867 q 271 979 332 979 q 187 923 213 979 q 161 736 161 867 q 187 550 161 607 q 275 493 213 493 z "},"~":{"ha":4500,"x_min":68,"x_max":4432,"o":"m 275 808 q 323 822 297 817 q 368 829 349 828 l 374 829 q 386 825 386 829 q 365 785 386 824 q 313 690 343 746 q 210 513 246 576 q 163 424 174 449 q 153 396 153 403 q 153 394 153 396 q 191 388 157 390 q 274 386 225 386 l 389 386 l 383 321 q 379 278 381 301 q 372 200 376 232 l 367 146 l 335 150 q 198 212 264 161 q 94 335 132 263 q 77 377 83 360 q 69 418 71 394 q 68 489 68 442 q 69 556 68 532 q 76 596 71 579 q 90 633 81 613 q 275 808 147 756 m 431 765 l 440 831 l 471 825 q 606 759 540 813 q 708 635 672 706 q 723 597 718 614 q 729 556 728 581 q 731 489 731 532 q 729 421 731 444 q 723 380 728 397 q 708 342 718 363 q 551 182 654 235 q 497 160 526 169 q 443 147 467 151 q 429 146 435 146 q 421 150 421 146 q 454 212 421 151 q 535 360 488 272 q 617 508 583 446 q 650 574 650 569 q 531 582 650 581 l 410 582 l 415 642 q 422 702 418 667 q 431 765 426 738 m 1613 747 q 1699 758 1643 758 q 1721 757 1710 758 q 1788 751 1765 756 q 1839 731 1811 746 q 1953 613 1911 692 q 1969 570 1965 593 q 1972 492 1972 547 q 1969 415 1972 438 q 1953 372 1965 393 q 1729 226 1881 233 q 1703 225 1715 225 q 1615 239 1656 225 q 1531 293 1574 253 q 1465 381 1483 335 q 1446 492 1446 426 q 1450 556 1446 532 q 1465 606 1454 581 q 1528 689 1485 647 q 1613 747 1571 731 m 1778 608 q 1713 626 1744 626 q 1674 620 1701 626 q 1615 579 1646 614 q 1585 492 1585 544 q 1620 398 1585 435 q 1711 361 1656 361 q 1801 399 1764 361 q 1840 492 1838 438 q 1821 556 1840 521 q 1778 608 1801 590 m 3211 746 q 3304 760 3253 760 q 3344 758 3311 760 q 3419 739 3376 757 q 3453 721 3439 731 q 3469 707 3467 711 q 3469 703 3469 706 q 3462 681 3469 696 q 3440 647 3454 665 q 3414 614 3426 628 q 3396 603 3403 603 l 3396 603 q 3383 607 3392 604 q 3346 619 3367 613 q 3303 628 3324 628 q 3258 618 3285 628 q 3207 574 3231 608 q 3183 492 3183 539 q 3219 397 3183 433 q 3313 361 3256 361 l 3353 361 l 3353 472 l 3419 469 l 3485 467 l 3485 271 l 3446 251 q 3338 226 3406 229 q 3311 225 3324 225 q 3218 238 3260 225 q 3128 294 3172 253 q 3064 379 3085 335 q 3042 492 3042 431 q 3042 526 3042 494 q 3067 608 3042 558 q 3130 692 3089 653 q 3211 746 3171 731 m 1019 742 q 1061 750 1019 749 q 1117 751 1081 751 q 1204 750 1153 751 l 1386 747 l 1386 636 l 1274 635 l 1160 632 l 1160 532 l 1326 526 l 1326 407 l 1160 403 l 1160 232 l 1090 235 l 1019 238 l 1017 485 l 1017 581 q 1017 680 1017 625 q 1019 742 1018 735 m 2061 753 l 2136 753 l 2210 751 l 2296 608 l 2383 467 l 2383 753 l 2519 753 l 2519 232 l 2446 235 l 2372 238 l 2288 381 l 2201 522 l 2197 381 l 2193 238 l 2128 235 l 2061 232 l 2061 753 m 2597 753 l 2803 750 l 3010 747 l 3010 636 l 2943 635 l 2876 632 l 2875 435 l 2872 238 l 2803 235 l 2732 232 l 2732 633 l 2597 633 l 2597 753 m 3583 753 l 3772 750 l 3961 747 l 3961 636 l 3840 635 l 3718 632 l 3718 549 l 3906 549 l 3906 438 l 3718 438 l 3718 351 l 3965 351 l 3965 233 l 3583 233 l 3583 753 m 4019 740 q 4039 747 4021 744 q 4101 751 4057 750 q 4228 753 4146 753 l 4432 753 l 4432 633 l 4297 633 l 4297 232 l 4226 235 l 4157 238 l 4154 435 l 4151 632 l 4086 635 l 4021 636 l 4018 683 l 4017 701 q 4017 722 4017 710 q 4019 740 4018 735 z "}}}
